<?xml version="1.0" standalone="no"?>
<!DOCTYPE svg PUBLIC "-//W3C//DTD SVG 20010904//EN"
 "http://www.w3.org/TR/2001/REC-SVG-20010904/DTD/svg10.dtd">
<svg version="1.0" xmlns="http://www.w3.org/2000/svg"
 width="250pt" height="250pt" viewBox="0 0 250 250"
 preserveAspectRatio="xMidYMid meet">

    <g transform="translate(0,250) scale(0.05,-0.05)"
    fill="#000000" stroke="none">
        <path d="M1412 3691 c2 -5 113 -105 248 -222 135 -117 270 -234 300 -261 30
        -27 60 -46 67 -44 14 6 613 525 613 532 0 2 -277 4 -616 4 -357 0 -614 -4
        -612 -9z"/>
        <path d="M1320 3214 c0 -336 3 -425 13 -422 18 7 486 412 484 419 -2 9 -485
        429 -492 429 -3 0 -5 -192 -5 -426z"/>
        <path d="M2472 3429 c-134 -116 -242 -215 -240 -220 4 -12 471 -419 481 -419
        4 0 7 191 7 425 0 234 -1 425 -3 425 -1 0 -112 -95 -245 -211z"/>
        <path d="M3036 3624 c-20 -19 -20 -24 0 -52 l15 -22 343 0 c360 0 366 1 366
        45 0 44 -6 45 -366 45 -298 0 -345 -2 -358 -16z"/>
        <path d="M3051 3248 c-24 -9 -33 -35 -21 -59 10 -18 24 -19 264 -19 273 0 281
        2 274 52 l-3 23 -248 5 c-137 3 -256 2 -266 -2z"/>
        <path d="M1650 2946 c-129 -112 -236 -208 -237 -213 -2 -4 274 -8 612 -8 338
        0 615 2 614 5 0 5 -413 364 -464 404 l-24 19 -57 -52 c-32 -28 -63 -51 -70
        -51 -7 0 -39 23 -72 50 -33 28 -62 50 -63 50 -2 0 -110 -92 -239 -204z"/>
        <path d="M3035 2850 c-17 -18 -17 -21 -1 -45 l16 -25 180 0 c149 0 181 3 194
        16 9 8 16 22 16 29 0 7 -7 21 -16 29 -13 13 -45 16 -193 16 -164 0 -179 -1
        -196 -20z"/>
        <path d="M2661 2008 c166 -145 308 -264 315 -266 12 -3 614 511 614 524 0 2
        -277 4 -615 4 l-616 0 302 -262z"/>
        <path d="M1258 2209 c-21 -12 -24 -49 -6 -67 9 -9 103 -12 360 -12 l348 0 12
        26 c11 23 10 29 -11 45 -22 18 -45 19 -355 19 -206 0 -338 -4 -348 -11z"/>
        <path d="M2280 1786 c0 -234 2 -426 4 -426 4 0 292 248 451 388 l45 40 -240
        208 c-133 115 -245 211 -250 212 -6 2 -10 -154 -10 -422z"/>
        <path d="M3639 2187 c-14 -12 -124 -107 -243 -211 -174 -151 -215 -191 -204
        -201 86 -78 478 -415 483 -415 3 0 5 191 5 425 0 234 -3 425 -7 425 -5 -1 -20
        -11 -34 -23z"/>
        <path d="M1442 1818 c-18 -18 -14 -56 7 -68 12 -6 113 -10 259 -10 226 0 240
        1 257 20 15 17 16 24 7 45 l-12 25 -253 0 c-183 0 -256 -3 -265 -12z"/>
        <path d="M2610 1523 c-129 -112 -239 -208 -244 -214 -6 -5 220 -9 608 -9 384
        0 616 4 614 9 -1 6 -79 76 -173 157 -93 80 -200 173 -236 205 l-66 59 -57 -50
        c-32 -28 -66 -50 -77 -50 -10 0 -38 17 -61 37 -24 20 -50 42 -58 49 -12 10
        -56 -24 -250 -193z"/>
        <path d="M1592 1443 c-22 -9 -34 -41 -22 -63 10 -19 21 -20 201 -20 l189 0 12
        25 c9 21 8 28 -7 45 -17 19 -30 20 -189 19 -94 0 -177 -3 -184 -6z"/>
    </g>
</svg>
